<svg xmlns="http://www.w3.org/2000/svg" viewBox="0 0 546 546"><defs><style>.cls-1{opacity:0.75;}.cls-2{fill:#29abe2;}.cls-3,.cls-4{fill:#fff;}.cls-4{font-size:57.41px;font-family:SegoeUISymbol, Segoe UI Symbol;}</style></defs><g id="Layer_2" data-name="Layer 2"><g id="Layer_1-2" data-name="Layer 1"><g class="cls-1"><rect class="cls-2" width="546" height="546" rx="124.96"/></g><path class="cls-3" d="M345.21,416.47V402.6c40.64-4,42.13-6.94,41.63-60l.5-202.18c-40.64,90.68-106,232.41-123.4,276H251.06C234.21,371.38,178.21,235.1,140.55,145.4c-8.43,173.45-8.92,212.6-8.92,222,.49,27.75,12.88,31.72,46.58,35.19v13.87H60.76V402.6c28.75-3,40.64-8.92,44.6-35.68,3-21.81,3.47-39.65,16.36-220.53,2-25.77-3-34.19-46.59-38.15V94.36h86.23L270.88,345.61,388.33,94.36h86.72v13.88c-42.62,5-48.07,9.41-47.08,44.1l2,190.29c2,53,3.46,55.51,47.07,60v13.87Z"/><text class="cls-4" transform="translate(192 482.11) scale(2.05 1)">TN</text></g></g></svg>