<svg xmlns="http://www.w3.org/2000/svg" viewBox="0 0 1048.5 974"><defs><style>.cls-1{fill:#29abe2;}</style></defs><g id="Layer_2" data-name="Layer 2"><g id="Layer_2-2" data-name="Layer 2"><path class="cls-1" d="M1048.5.5V964.14A141.68,141.68,0,0,1,873,901.54,463.71,463.71,0,0,1,742.5,920c-131.2,0-247.14-53.45-317-135.18C381.69,733.59,356,671.25,356,604a262.92,262.92,0,0,1,15-87.5,289.46,289.46,0,0,1,43.2-79.34A221.89,221.89,0,0,1,368,442c-122,0-221-98.95-221-221a222,222,0,0,1,4.58-44.95A178.2,178.2,0,0,1,13.5,68.12,177.43,177.43,0,0,1,0,0H524V.5Z"/></g></g></svg>